<?xml version="1.0" encoding="utf-8"?>
<!-- Generator: Adobe Illustrator 15.0.2, SVG Export Plug-In . SVG Version: 6.00 Build 0)  -->
<!DOCTYPE svg PUBLIC "-//W3C//DTD SVG 1.1//EN" "http://www.w3.org/Graphics/SVG/1.1/DTD/svg11.dtd">
<svg version="1.1" id="Layer_1" xmlns="http://www.w3.org/2000/svg" xmlns:xlink="http://www.w3.org/1999/xlink" x="0px" y="0px"
	 width="595.28px" height="595.28px" viewBox="0 0 595.28 595.28" enable-background="new 0 0 595.28 595.28" xml:space="preserve">
<g>
	<circle fill="#D1A478" cx="297.64" cy="297.64" r="255.118"/>
	<g>
		<path fill="#BC8754" d="M134.634,282.925c0,0,14.285,19.851,8.335,33.974c-5.95,14.123-12.729,16.717-10.752,31.203
			c1.977,14.487,7.249,26.129,2.417,31.4c0,0,14.311-18.8,10.89-31.915s2.597-12.749,6.991-20.438
			c4.393-7.688,2.688-12.529,2.688-12.529s13.736,8.671,5.699,33.481s-10.387,45.679-8.388,49.633
			c1.999,3.954,1.999,3.954,1.999,3.954s-1.208-15.157,4.942-30.313c6.15-15.157,10.062-21.308,10.468-25.7
			c0,0,2.492,32.619-10.138,43.053c0,0,29.984-4.139,30.094-19.532s-9.841-27.365-9.841-27.365L134.634,282.925z"/>
		<path fill="#BC8754" d="M172.562,338.134c0,0-9.956,18.891-4.392,30.021c5.564,11.129,1.758,35.438,0,36.171
			c0,0,12.369-18.197,11.822-43.073c-0.547-24.876,11.022-13.664,11.022-13.664l-4.54,16.319c0,0-5.272,13.473-2.636,21.673
			c2.636,8.201,2.196,29.289-8.201,29.728c0,0,13.974,9.641,15.376-19.623c1.403-29.263,10.251-30.602,10.251-30.602v-0.736
			c0,0,8.933,33.974,5.565,47.739s-19.795,22.113-19.795,22.113s31.217-0.732,32.096-28.264l-3.808-36.739l-22.518-28.639
			L172.562,338.134z"/>
		<path fill="#BC8754" d="M160.847,319.242c0,0-14.827,9.171-4.924,32.264c9.903,23.092,16.347,29.682,7.56,43.447
			c0,0,12.447-12.447,5.711-36.465c-6.737-24.016,7.175-27.39,7.175-27.39s-4.247,18.457,0,39.545
			c4.247,21.087,0.793,37.196-5.534,40.563c0,0,19.153-16.547,13.735-39.539c-5.418-22.99,1.757-28.849,1.757-28.849l8.348,21.674
			c0,0-6.736,14.79-4.833,31.631c1.904,16.841-10.104,32.071-12.887,33.535c0,0,25.627-9.372,22.698-30.899
			c-2.929-21.526,7.908-35.865,7.908-35.865l-20.648-57.856L160.847,319.242z"/>
		<path fill="#BC8754" d="M81.476,126.398c0,0-11.312-2.911-19.935,1.592c-7.544,3.94-12.733,4.055-14.244,3.764
			c-0.216-0.042-0.356-0.091-0.418-0.14c-0.494-0.384,10.818,3.24,17.298-0.714c6.48-3.954,14.772-0.714,14.772-0.714
			s-11.038,2.636-16.255,9.775c-4.802,6.571-7.603,9.28-8.79,9.884c-0.102,0.052-0.193,0.088-0.271,0.11
			c-0.989,0.275,10.272-2.798,13.564-9.61c3.292-6.812,11.093-6.315,11.258-6.315c0,0-6.48,3.624-10.324,8.566
			s-6.754,6.865-10.269,14.772s-2.636,9.281-1.977,14.498c0,0,8.47-20.801,14.889-22.756c6.418-1.956,9.219-1.626,9.329-4.866
			c0,0,1.373,5.602-5.053,9.006c-6.425,3.405-9.665,11.697-12.85,14.663c0,0,13.564-4.778,16.859-9.885
			c0,0-8.374,6.409-11.478,12.301c-3.104,5.893-3.02,15.212-6.535,18.671c0,0,8.088-4.846,8.603-11.237
			c0.514-6.391,7.268-10.235,11.826-11.389l-4.668,9.94c0,0-8.018,5.327-7.194,15.761s-4.174,16.2-4.174,16.2
			s9.61-9.226,9.775-17.848s4.118-9.296,7.414-11.32c0,0-6.81,6.268-6.48,13.188s-3.514,17.792-9.061,20.099
			c0,0,12.795-9.939,13.949-15.706c1.153-5.766,5.711-9.061,5.711-9.061s-6.757,10.101-9.282,21.196
			c-2.525,11.095,0.166,11.149-1.481,17.135c0,0,3.459-8.182,4.119-13.949c0.659-5.766,2.416-4.558,6.645-8.072
			s4.229-3.515,4.229-3.515s-1.678,5.181-5.845,8.183s-6.145,14.644-7.096,21.014c-0.952,6.37-0.952,9.446-5.053,10.324
			c0,0,10.251,1.172,10.983-13.692l6.59-4.979c0,0-6.235,15.157-5.424,24.675c0,0,2.569-10.178,8.719-12.667
			c0,0-2.929,21.894,0,33.022c2.929,11.13,1.611,20.355,1.098,22.187c0,0,5.926-3.526,3.952-17.542
			c-1.975-14.017,3.59-22.803,6.08-29.1c0,0-1.208,14.974,0,21.344c1.208,6.37,5.82,5.491,8.018,21.417
			c2.196,15.926-0.879,25.371-0.879,25.371s7.249-20.1,4.613-31.741c-2.636-11.643,5.931-17.793,5.931-17.793
			s1.212,15.071,1.155,24.944c-0.057,9.873,4.446,14.706-2.913,22.613c0,0,14.031-2.368,14.484-18.153
			c0,0-0.588,26.281-13.687,32.212c0,0,14.775,0.329,21.267-13.619c6.491-13.948,0.561-0.22,0.561-0.22s-6.15,19.77-3.075,31.521
			s-4.613,18.013-4.613,18.013s13.166-2.757,10.166-22.626c-3-19.867,9.195-19.659,9.195-19.659s-11.014,13.124-8.048,34.294
			c2.965,21.171-4.185,17.876-4.185,17.876s9.237,7.798,8.578-11.532c-0.659-19.33,3.655-27.238,3.655-27.238
			s-2.337,8.896,0.958,18.122s8.457,13.29,8.457,13.29s-7.992-20.164,0-30.094c7.992-9.931,0-16.694,0-16.694L131.778,252.1
			l-27.458-33.608L87.626,153.91l6.15-19.769L81.476,126.398z"/>
		<path fill="#BC8754" d="M103.422,132.007c0,0-18.139-11.046-39.52-7.824c-21.38,3.222-21.38,3.222-21.38,3.222
			s21.673-3.954,31.045-0.732c9.372,3.222,9.372,3.222,9.372,3.222s-12.594-8.64-25.773,7.761
			c-13.18,16.402-13.18,16.402-13.18,16.402s20.502-20.941,32.07-21.234c0,0-14.79,6.297-18.012,19.184
			c0,0,15.522-13.912,23.723-14.937l-2.636,9.958c0,0-15.23-1.757-18.159,20.209c0,0,11.862-17.134,22.845-14.059
			c0,0-23.101,4.357-22.003,28.3c0,0,5.821-15.706,19.33-17.792c0,0-18.415,13.216-16.218,38.404c0,0,9.372-30.021,22.698-30.313
			c0,0-24.163,36.757-18.452,64.141c0,0,5.564-33.242,19.916-42.175c0,0-14.644,29.728-7.176,58.284c0,0,1.465-24.456,14.351-34.121
			c0,0-15.522,24.456-4.246,50.376c0,0-1.611-28.556,10.69-37.782c0,0-9.226,24.603-1.611,50.669
			c7.615,26.066,3.075,36.965,3.075,36.965s10.69-14.706,5.418-36.379c-5.272-21.674-1.904-36.025,0.585-38.954l3.222,18.598
			c0,0,9.372,17.866,4.687,38.807c0,0,9.372-15.376,5.711-28.995c0,0,9.958,18.159,3.661,41.589c0,0,12.74-12.154,8.2-29.142
			c-4.539-16.987,0.979-0.439,0.979-0.439s5.758,20.795-0.832,33.975c-6.589,13.18,0.439,21.526,0.439,21.526
			s-0.439-8.493,4.394-18.305c4.833-9.812,7.029-17.572,6.443-25.042c0,0,6.297,14.477,2.929,35.209
			c-3.368,20.731,9.812,31.86,9.812,31.86s-8.933-17.729-3.661-31.344c5.272-13.613,1.025-20.057,1.025-20.057
			s9.079,8.2,6.883,23.577c-2.197,15.376-1.757,15.146-1.757,15.146s10.476-13.699,8.201-29.059l-24.456-94.863l-29.874-44.058
			L103.422,132.007z"/>
		<path fill="#BC8754" d="M235.159,221.739c-12.74-5.931-36.546-9.618-56.494-39.954c8.095,7.346,14.2,13.145,15.899,14.719
			c4.104,3.802,14.39,10.83,20.792,12.672c6.402,1.843,45.36,18.447,45.36,18.447l-13.721,20.585l-8.75-17.147
			C238.247,231.062,247.9,227.67,235.159,221.739z"/>
		<path fill="#BC8754" d="M207.122,372.804c0,0-15.047,11.486-13.18,31.004c1.867,19.519-0.33,18.859-3.405,23.802
			c0,0,18.122-5.876,18.013-25.344c-0.11-19.468,6.37-17.051,6.37-17.051L207.122,372.804z"/>
	</g>
	<path fill="#BC8754" d="M460.646,282.925c0,0-14.285,19.851-8.335,33.974c5.949,14.123,12.729,16.717,10.751,31.203
		c-1.977,14.487-7.248,26.129-2.416,31.4c0,0-14.312-18.8-10.89-31.915c3.421-13.115-2.598-12.749-6.991-20.438
		c-4.393-7.688-2.688-12.529-2.688-12.529s-13.736,8.671-5.699,33.481c8.036,24.811,10.387,45.679,8.387,49.633
		c-1.998,3.954-1.998,3.954-1.998,3.954s1.208-15.157-4.942-30.314c-6.15-15.156-10.062-21.307-10.468-25.699
		c0,0-2.492,32.619,10.139,43.053c0,0-29.984-4.139-30.095-19.532c-0.109-15.394,9.841-27.365,9.841-27.365L460.646,282.925z"/>
	<path fill="#BC8754" d="M422.719,338.134c0,0,9.956,18.891,4.393,30.021c-5.564,11.129-1.759,35.438,0,36.171
		c0,0-12.369-18.198-11.822-43.073c0.547-24.876-11.022-13.664-11.022-13.664l4.54,16.319c0,0,5.271,13.473,2.636,21.673
		c-2.636,8.201-2.196,29.289,8.201,29.728c0,0-13.974,9.641-15.377-19.623c-1.402-29.263-10.251-30.602-10.251-30.602v-0.736
		c0,0-8.933,33.974-5.564,47.739s19.795,22.113,19.795,22.113s-31.217-0.732-32.096-28.264l3.808-36.739l22.518-28.639
		L422.719,338.134z"/>
	<path fill="#BC8754" d="M434.434,319.242c0,0,14.827,9.171,4.924,32.264c-9.902,23.092-16.346,29.682-7.56,43.447
		c0,0-12.447-12.447-5.712-36.465c6.737-24.016-7.175-27.39-7.175-27.39s4.247,18.457,0,39.545
		c-4.247,21.087-0.794,37.196,5.534,40.563c0,0-19.153-16.547-13.735-39.539c5.419-22.99-1.757-28.849-1.757-28.849l-8.348,21.674
		c0,0,6.736,14.79,4.833,31.631s10.104,32.071,12.887,33.535c0,0-25.627-9.372-22.698-30.899
		c2.929-21.526-7.908-35.865-7.908-35.865l20.648-57.856L434.434,319.242z"/>
	<path fill="#BC8754" d="M513.805,126.398c0,0,11.312-2.911,19.935,1.592c7.544,3.94,12.733,4.055,14.244,3.764
		c0.216-0.042,0.356-0.091,0.418-0.14c0.494-0.384-10.818,3.24-17.298-0.714c-6.48-3.954-14.772-0.714-14.772-0.714
		s11.038,2.636,16.255,9.775c4.802,6.571,7.604,9.28,8.789,9.884c0.103,0.052,0.193,0.088,0.271,0.11
		c0.989,0.275-10.271-2.798-13.563-9.61c-3.292-6.812-11.093-6.315-11.258-6.315c0,0,6.479,3.624,10.324,8.566
		c3.844,4.942,6.755,6.865,10.269,14.772c3.516,7.908,2.637,9.281,1.978,14.498c0,0-8.47-20.801-14.888-22.756
		c-6.42-1.956-9.221-1.626-9.33-4.866c0,0-1.373,5.602,5.053,9.006c6.425,3.405,9.665,11.697,12.85,14.663
		c0,0-13.563-4.778-16.859-9.885c0,0,8.374,6.409,11.478,12.301c3.104,5.893,3.021,15.212,6.535,18.671
		c0,0-8.089-4.846-8.603-11.237c-0.514-6.391-7.268-10.235-11.826-11.389l4.668,9.94c0,0,8.018,5.327,7.193,15.761
		c-0.823,10.434,4.174,16.2,4.174,16.2s-9.609-9.226-9.774-17.848s-4.118-9.296-7.413-11.32c0,0,6.809,6.268,6.479,13.188
		c-0.33,6.919,3.515,17.792,9.061,20.099c0,0-12.795-9.939-13.948-15.706c-1.153-5.766-5.711-9.061-5.711-9.061
		s6.758,10.101,9.282,21.196s-0.167,11.149,1.481,17.135c0,0-3.46-8.182-4.119-13.949c-0.659-5.766-2.416-4.558-6.645-8.072
		s-4.229-3.515-4.229-3.515s1.678,5.181,5.845,8.183c4.168,3.002,6.146,14.644,7.097,21.014c0.952,6.37,0.952,9.446,5.053,10.324
		c0,0-10.251,1.172-10.983-13.692l-6.59-4.979c0,0,6.235,15.157,5.424,24.675c0,0-2.568-10.178-8.719-12.667
		c0,0,2.929,21.894,0,33.022c-2.929,11.13-1.611,20.355-1.099,22.186c0,0-5.926-3.525-3.951-17.542
		c1.975-14.017-3.59-22.803-6.08-29.1c0,0,1.209,14.974,0,21.344c-1.208,6.37-5.82,5.491-8.018,21.417
		c-2.196,15.926,0.879,25.371,0.879,25.371s-7.249-20.1-4.613-31.741c2.637-11.643-5.931-17.793-5.931-17.793
		s-1.212,15.071-1.155,24.944s-4.446,14.706,2.913,22.613c0,0-14.031-2.368-14.484-18.153c0,0,0.588,26.281,13.687,32.212
		c0,0-14.775,0.329-21.267-13.619c-6.492-13.948-0.562-0.22-0.562-0.22s6.15,19.77,3.076,31.521
		c-3.076,11.752,4.612,18.013,4.612,18.013s-13.165-2.757-10.165-22.626c3-19.867-9.195-19.659-9.195-19.659
		s11.014,13.124,8.048,34.294c-2.966,21.171,4.186,17.876,4.186,17.876s-9.237,7.798-8.579-11.532
		c0.659-19.33-3.654-27.238-3.654-27.238s2.337,8.896-0.958,18.122s-8.457,13.29-8.457,13.29s7.991-20.164,0-30.094
		c-7.992-9.931,0-16.694,0-16.694l32.839-61.396l27.458-33.608l16.694-64.581l-6.15-19.769L513.805,126.398z"/>
	<path fill="#BC8754" d="M491.857,132.007c0,0,18.14-11.046,39.521-7.824c21.38,3.222,21.38,3.222,21.38,3.222
		s-21.673-3.954-31.045-0.732c-9.372,3.222-9.372,3.222-9.372,3.222s12.594-8.641,25.773,7.761
		c13.18,16.402,13.18,16.402,13.18,16.402s-20.502-20.941-32.07-21.234c0,0,14.79,6.297,18.012,19.184
		c0,0-15.522-13.912-23.724-14.937l2.637,9.958c0,0,15.229-1.757,18.158,20.209c0,0-11.861-17.134-22.845-14.059
		c0,0,23.101,4.357,22.003,28.3c0,0-5.821-15.706-19.33-17.792c0,0,18.414,13.216,16.218,38.404c0,0-9.372-30.021-22.698-30.313
		c0,0,24.163,36.757,18.451,64.141c0,0-5.564-33.242-19.916-42.175c0,0,14.645,29.728,7.176,58.284c0,0-1.464-24.456-14.351-34.121
		c0,0,15.522,24.456,4.247,50.376c0,0,1.61-28.557-10.691-37.782c0,0,9.227,24.603,1.611,50.669s-3.075,36.965-3.075,36.965
		s-10.69-14.706-5.419-36.379c5.272-21.674,1.904-36.025-0.585-38.954l-3.222,18.598c0,0-9.372,17.866-4.687,38.807
		c0,0-9.372-15.376-5.711-28.995c0,0-9.958,18.159-3.661,41.589c0,0-12.74-12.154-8.201-29.142c4.54-16.987-0.978-0.439-0.978-0.439
		s-5.759,20.795,0.832,33.975c6.589,13.18-0.439,21.526-0.439,21.526s0.439-8.493-4.394-18.305
		c-4.832-9.812-7.029-17.572-6.443-25.042c0,0-6.297,14.477-2.929,35.209c3.368,20.731-9.812,31.86-9.812,31.86
		s8.933-17.729,3.661-31.344c-5.272-13.613-1.025-20.057-1.025-20.057s-9.079,8.2-6.883,23.577
		c2.196,15.376,1.757,15.146,1.757,15.146s-10.476-13.699-8.2-29.059l24.456-94.863l29.874-44.058L491.857,132.007z"/>
	<path fill="#C58D58" d="M260.717,227.624c0,0-38.958-16.604-45.36-18.447c-6.402-1.842-16.688-8.87-20.792-12.672
		c-4.104-3.801-33.851-32.205-55.444-47.657c-21.593-15.452-50.743-21.071-58.191-21.933c-7.448-0.862-7.448-0.862-7.448-0.862
		s4.285,108.187,51.906,151.018c0,0,1.58,7.591,2.951,10.278c1.371,2.687,6.643,3.627,8.743,11.074
		c2.099,7.447,3.309,10.727,8.243,14.338c0,0-0.394,8.167,12.608,12.893c13.002,4.727,13.302,5.769,17.877,14.131
		c4.576,8.361,4.576,8.361,4.576,8.361L260.717,227.624z"/>
	<path fill="#C58D58" d="M334.562,227.624c0,0,38.957-16.604,45.36-18.447c6.402-1.842,16.688-8.87,20.792-12.672
		c4.104-3.801,33.852-32.205,55.444-47.657c21.593-15.452,50.743-21.071,58.191-21.933c7.448-0.862,7.448-0.862,7.448-0.862
		s-4.285,108.187-51.906,151.018c0,0-1.58,7.591-2.951,10.278c-1.37,2.687-6.643,3.627-8.742,11.074s-3.309,10.727-8.243,14.338
		c0,0,0.394,8.167-12.608,12.893c-13.002,4.727-13.302,5.769-17.877,14.131c-4.576,8.361-4.576,8.361-4.576,8.361L334.562,227.624z"
		/>
	<path fill="#BC8754" d="M215.357,209.177c-6.402-1.842-16.688-8.87-20.792-12.672c-4.104-3.801-33.851-32.205-55.444-47.657
		c-3.052-2.184-6.257-4.165-9.529-5.971c0.477,0.385,42.58,34.373,56.996,52.283c14.498,18.013,21.747,18.671,31.412,20.209
		c9.666,1.538,25.665,8.077,23.706,15.241l15.255,2.649l3.757-5.636C260.717,227.624,221.76,211.02,215.357,209.177z"/>
	<path fill="#BC8754" d="M360.121,221.739c12.74-5.931,36.547-9.618,56.494-39.954c-8.096,7.346-14.2,13.145-15.9,14.719
		c-4.104,3.802-14.39,10.83-20.792,12.672c-6.403,1.843-45.36,18.447-45.36,18.447l13.721,20.585l8.75-17.147
		C357.033,231.062,347.381,227.67,360.121,221.739z"/>
	<path fill="#CCC6C6" d="M370.006,256.232c0,0,50.521-15.963,54.915-38.228s10.544-46.629,39.1-61.752
		c28.556-15.123,46.129-17.223,46.129-17.223s-35.292,129.105-49.644,138.067c-14.352,8.962-16.401,11.482-16.987,17.924
		c-0.585,6.441-19.33,11.78-19.037,23.113L370.006,256.232z"/>
	<path fill="#C3BDBD" d="M443.519,295.02c0.586-6.441,2.636-8.962,16.987-17.924c5.651-3.528,14.548-25.686,23.259-51.252
		c-0.073,0.18-13.839,33.812-23.588,43.343c-9.775,9.555-12.63,7.139-16.035,13.18c-3.405,6.041-5.931,15.156-9.116,18.122
		c-3.186,2.965-7.853,5.382-7.881,0l-6.287,9.665l4.175,4.468C428.087,305.621,442.997,300.756,443.519,295.02z"/>
	<path fill="#C3BDBD" d="M412.798,256.956c-1.031-10.583-1.94-7.453,15.383-18.449s12.116-42.175,22.953-60.626
		s59.016-38.852,59.016-38.852s-17.573,2.101-46.129,17.223c-28.556,15.123-34.706,39.488-39.1,61.752
		c-2.229,11.293-16.325,20.964-29.678,27.754c-0.393,1.094-0.636,1.792-0.636,1.792L412.798,256.956z"/>
	<path fill="#CCC6C6" d="M225.274,256.232c0,0-50.522-15.963-54.915-38.228s-10.544-46.629-39.1-61.752
		c-28.556-15.123-46.129-17.223-46.129-17.223s35.292,129.105,49.644,138.067c14.351,8.962,16.401,11.482,16.987,17.924
		s19.331,11.78,19.037,23.113L225.274,256.232z"/>
	<path fill="#C3BDBD" d="M162.864,204.825c2.417,30.753,10.617,31.925,15.889,34.121s5.721,6.407,4.618,14.553l12.662-6.206
		c0,0,0.231-1.375,0.558-3.346c-12.238-6.651-24.195-15.619-26.232-25.943c-4.393-22.264-10.544-46.629-39.1-61.752
		C131.26,156.252,160.448,174.073,162.864,204.825z"/>
	<path fill="#C3BDBD" d="M134.774,277.096c14.351,8.962,16.401,11.482,16.987,17.924s19.331,11.78,19.037,23.113l7.548-8.576
		l-9.295-18.848c-6.773,9.223-15.193-1.973-18.488-11.198c-3.295-9.226-9.226-1.758-18.232-13.839
		c-9.006-12.082-24.602-65.02-35.146-92.258c-10.543-27.238-3.043-32.408-3.043-32.408c-5.833-1.594-9.012-1.978-9.012-1.978
		S120.423,268.134,134.774,277.096z"/>
	<g>
		<g>
			<path fill="#C58D58" d="M217.395,437.226c-0.293,0.067-0.456,0.21-0.456,0.21C217.113,437.386,217.261,437.312,217.395,437.226z"
				/>
		</g>
		<g>
			<path fill="#C58D58" d="M429.353,342.545c0,0,5.53-0.262,7.355-4.785c0,0-3.727,0.995-4.679-1.166c0,0,3.211-1.111,3.568-5.873
				c0,0-4.881,1.667-6.904-1.547c-1.379-5.114-2.673-10.693-1.989-18.707c1.087-12.739,0.218-20.939-3.042-27.235
				c-3.259-6.296-8.256-14.496-12.168-31.481c-3.91-16.986-23.248-17.864-31.505-18.304c-8.257-0.439-37.59-3.807-50.409-6.882
				s-31.94-3.075-31.94-3.075s-19.121,0-31.94,3.075s-42.152,6.443-50.409,6.882c-8.257,0.439-27.594,1.318-31.505,18.304
				c-3.911,16.985-8.909,25.186-12.167,31.481c-3.259,6.296-4.128,14.496-3.042,27.235c0.683,8.014-0.611,13.593-1.989,18.707
				c-2.024,3.214-6.904,1.547-6.904,1.547c0.357,4.762,3.569,5.873,3.569,5.873c-0.953,2.161-4.679,1.166-4.679,1.166
				c1.825,4.523,7.355,4.785,7.355,4.785c-2.262,3.69-7.355,2.937-7.355,2.937c4.735,7.222,11.508,3.299,11.583,3.256
				c0.005,0.007,0.011,0.015,0.017,0.022c4.295,7.511-2.632,6.403-2.632,6.403c2.382,1.53,8.916,4.512,12.452,6.089
				c0.189,0.235,0.38,0.473,0.571,0.711c-3.362-0.439-5.524,0.326-5.524,0.326c4.406,1.726,8.329,4.433,11.109,6.661
				c0.342,0.432,0.685,0.864,1.029,1.302c-0.371,1.904-1.68,4.75-6.226,4.75c0,0,12.697,2.063,12.855,7.777
				c0.159,5.713,0.635,6.805-2.4,10.673c0,0,5.535-7.201,7.976-5.476c0,0,2.202,5.178-1.607,7.976c0,0,6.309-3.035,7.737,3.095
				c1.428,6.131-3.988,6.666-5.892,4.762c0,0,3.988,3.809,8.035,1.309c0,0,2.797,6.25,0,9.166c0,0,2.916-1.666,3.273-5.059
				c0,0,6.488,14.284-0.893,23.628c0,0,3.452-4.702,6.428-3.511c0,0-0.833,3.095-2.202,4.582c0,0,2.916-1.309,4.047,0.655
				c0,0,0.234,1.905-0.913,2.646c0.548-0.126,1.56,0.017,2.877,1.877c0,0,0.119,1.012-2.381,1.249c0,0,1.38-0.172,3.988,2.023
				c1.131,0.953-1.488,1.607-2.619,1.607c0,0,1.106,1.548,3.619,1.012c0,0,1.321-0.44,0.607,1.923c0,0,0.494-0.238,1.23-0.431
				c8.436,13.249,27.923,27.482,72.924,24.893c45.001,2.59,64.489-11.644,72.924-24.893c0.736,0.192,1.23,0.43,1.23,0.43
				c-0.715-2.362,0.607-1.922,0.607-1.922c2.512,0.536,3.618-1.012,3.618-1.012c-1.131,0-3.749-0.654-2.619-1.607
				c2.608-2.195,3.988-2.023,3.988-2.023c-2.5-0.238-2.381-1.25-2.381-1.25c1.317-1.859,2.329-2.002,2.877-1.876
				c-1.147-0.741-0.913-2.646-0.913-2.646c1.131-1.964,4.047-0.655,4.047-0.655c-1.369-1.487-2.202-4.582-2.202-4.582
				c2.977-1.191,6.429,3.511,6.429,3.511c-7.381-9.344-0.894-23.628-0.894-23.628c0.357,3.393,3.273,5.059,3.273,5.059
				c-2.797-2.916,0-9.166,0-9.166c4.048,2.5,8.035-1.309,8.035-1.309c-1.904,1.904-7.32,1.369-5.893-4.762
				c1.429-6.13,7.737-3.095,7.737-3.095c-3.809-2.798-1.606-7.976-1.606-7.976c2.44-1.726,7.976,5.476,7.976,5.476
				c-3.035-3.868-2.56-4.96-2.4-10.673c0.158-5.714,12.855-7.777,12.855-7.777c-4.547,0-5.855-2.846-6.227-4.751
				c0.344-0.437,0.687-0.869,1.029-1.301c2.779-2.228,6.703-4.936,11.109-6.661c0,0-2.162-0.766-5.524-0.326
				c0.19-0.238,0.382-0.476,0.571-0.711c3.537-1.577,10.07-4.559,12.452-6.089c0,0-6.927,1.107-2.632-6.403
				c0.005-0.008,0.011-0.016,0.017-0.023c0.073,0.044,6.847,3.967,11.582-3.255C436.708,345.481,431.614,346.235,429.353,342.545z"
				/>
		</g>
		<g>
			<path fill="#C58D58" d="M377.886,437.226c0.134,0.086,0.282,0.16,0.456,0.21C378.342,437.436,378.18,437.293,377.886,437.226z"/>
		</g>
	</g>
	<path fill="#C58D58" d="M217.395,437.226c-0.293,0.067-0.456,0.21-0.456,0.21C217.112,437.386,217.261,437.312,217.395,437.226z"/>
	<path fill="#BC8754" d="M210.035,432.853c0,0,3.452-4.702,6.428-3.511c0,0-0.833,3.095-2.202,4.582c0,0,2.916-1.309,4.047,0.655
		c0,0,0.234,1.905-0.913,2.646c0.548-0.126,1.56,0.017,2.877,1.877c0,0,0.119,1.011-2.381,1.249c0,0,1.38-0.172,3.988,2.023
		c1.13,0.953-1.488,1.607-2.619,1.607c0,0,1.106,1.548,3.619,1.012c0,0,1.321-0.44,0.607,1.922c0,0,0.494-0.237,1.23-0.43
		c8.436,13.249,27.923,27.482,72.924,24.893c45.001,2.59,64.489-11.644,72.924-24.893c0.736,0.192,1.23,0.43,1.23,0.43
		c-0.715-2.362,0.607-1.922,0.607-1.922c2.512,0.536,3.618-1.012,3.618-1.012c-1.131,0-3.749-0.654-2.619-1.607
		c2.608-2.195,3.988-2.023,3.988-2.023c-2.5-0.238-2.381-1.25-2.381-1.25c1.317-1.859,2.329-2.002,2.877-1.876
		c-1.147-0.741-0.913-2.647-0.913-2.647c1.131-1.963,4.047-0.654,4.047-0.654c-1.369-1.488-2.202-4.582-2.202-4.582
		c2.977-1.191,6.429,3.511,6.429,3.511c-7.381-9.344-0.894-23.628-0.894-23.628c0.357,3.393,3.273,5.059,3.273,5.059
		c-2.797-2.916,0-9.166,0-9.166c4.048,2.5,8.035-1.309,8.035-1.309c-1.904,1.904-7.32,1.369-5.893-4.762
		c1.429-6.13,7.737-3.095,7.737-3.095c-3.809-2.798-1.606-7.976-1.606-7.976c2.44-1.726,7.976,5.476,7.976,5.476
		c-3.035-3.868-2.56-4.96-2.4-10.673c0.158-5.714,12.855-7.777,12.855-7.777c-4.547,0-5.855-2.846-6.227-4.751
		c0.344-0.437,0.687-0.869,1.029-1.301c2.779-2.228,6.703-4.936,11.109-6.661c0,0-2.162-0.766-5.524-0.326
		c0.19-0.238,0.382-0.476,0.571-0.711c3.537-1.577,10.07-4.559,12.452-6.089c0,0-6.927,1.107-2.632-6.403
		c0.005-0.008,0.011-0.016,0.017-0.023c0.073,0.044,6.847,3.967,11.582-3.255c0,0-5.094,0.754-7.355-2.937
		c0,0,5.53-0.262,7.355-4.785c0,0-3.727,0.995-4.679-1.166c0,0,3.211-1.111,3.568-5.873c0,0-4.881,1.667-6.904-1.547
		c-1.379-5.114-2.672-10.693-1.989-18.707c1.087-12.739,0.218-20.939-3.042-27.235c-3.259-6.296-8.256-14.496-12.168-31.481
		c-3.91-16.986-23.248-17.864-31.505-18.304c-7.117-0.378-29.886-2.933-44.248-5.601l0,0c0,0,11.758,7.746,39.405,11.54
		c32.762,4.495,22.316,9.592,22.976,16.694c1.544,16.646-4.979,17.719,5.272,28.263c10.25,10.544,19.623,20.062,12.301,44.079
		s-48.766,36.454-47.594,62.086c1.172,25.633,7.762,39.837-1.025,53.603c-8.786,13.766-37.781,25.48-53.45,25.188
		c-15.669-0.293-21.234-0.586-30.021-0.586c-8.787,0-56.913-8.398-70.925-54.1l0,0C213.878,419.627,214.534,427.155,210.035,432.853
		z"/>
	<path fill="#C58D58" d="M296.958,230.225c0,0,3.126-3.418,7.336-6.576c-3.996-0.159-6.654-0.159-6.654-0.159s-3.241,0-7.944,0.215
		C293.869,226.847,296.958,230.225,296.958,230.225z"/>
	<path fill="#C58D58" d="M377.886,437.226c0.134,0.086,0.282,0.16,0.456,0.21C378.342,437.436,378.18,437.293,377.886,437.226z"/>
	<path fill="#E1E1E3" d="M285.894,283.421c0.111,10.33,0.217,21.431-0.073,32.452l0,0l0,0c-0.793,30.195-4.565,59.771-19.393,71.141
		l24.494,18.636l6.036-23.577l6.036,23.577l24.494-18.636c-14.828-11.369-18.6-40.946-19.393-71.142v0.001v-0.003
		c-0.29-11.019-0.185-22.118-0.072-32.447c2.291-21.247,10.328-45.794,34.713-49.871c-5.088-0.784-9.719-1.607-13.156-2.411
		c-8.041-1.88-18.561-2.58-25.286-2.841c-4.21,3.078-7.336,6.408-7.336,6.408s-3.089-3.292-7.262-6.354
		c-6.727,0.298-16.451,1.023-23.996,2.787c-3.605,0.843-8.517,1.708-13.897,2.525C275.698,238.056,283.621,262.357,285.894,283.421z
		"/>
	<path fill="#CCC6C6" d="M297.64,429.742c-19.064,0-34.519,2.293-34.519,10.196c0,5.567,7.979,7.937,19.36,6.417
		c4.598-0.613,9.752,3.954,15.159,3.912c5.407,0.042,10.56-4.525,15.159-3.912c11.381,1.52,19.359-0.85,19.359-6.417
		C332.158,432.035,316.704,429.742,297.64,429.742z"/>
	<path fill="#FFFEF6" d="M297.64,354.264c-34.169,0-61.87,47.321-61.87,81.43c0,33.84,28.059-1.836,61.87-1.949
		c33.811,0.113,61.87,35.789,61.87,1.949C359.51,401.585,331.81,354.264,297.64,354.264z"/>
	<g>
		<path fill="#CCC6C6" d="M314.275,354.351c0,0-1.553-11.452,0.395-13.756c1.947-2.305,4.752-3.943,6.01-6.611
			c1.258-2.667,4.973-7.485,10.044-10.733s18.14-7.988,25.458-7.12c7.317,0.868,18.667,10.196,22.963,13.43
			c4.297,3.232,6.845,6.07,9.046,6.989c2.201,0.918,0.722,2.245-5.107,9.065s-11.98,20.645-31.266,19.389
			c-19.285-1.255-22.002-7.869-27.821-8.09C318.176,356.691,315.299,355.317,314.275,354.351z"/>
		<path fill="#211F20" d="M374.918,343.535c-1.863,12.225-14.607,20.802-28.464,19.158c-13.856-1.645-23.578-12.888-21.714-25.113
			c1.863-12.225,14.606-20.802,28.463-19.158C367.06,320.066,376.781,331.31,374.918,343.535z"/>
		<path d="M365.775,341.37c-1.11,7.284-8.703,12.395-16.959,11.415s-14.049-7.679-12.938-14.963s8.703-12.395,16.96-11.415
			C361.094,327.387,366.887,334.086,365.775,341.37z"/>
		<path fill="#FFFFFF" d="M351.212,331.484c-0.563,3.699-4.42,6.295-8.612,5.797c-4.193-0.497-7.135-3.898-6.571-7.598
			c0.564-3.699,4.42-6.295,8.613-5.798C348.834,324.384,351.775,327.785,351.212,331.484z"/>
		<path fill="#FFFFFF" d="M356.725,351.959c-0.284,1.862-2.226,3.169-4.336,2.918c-2.111-0.25-3.592-1.963-3.309-3.825
			c0.284-1.862,2.226-3.169,4.336-2.918C355.527,348.384,357.008,350.097,356.725,351.959z"/>
	</g>
	<g>
		<path fill="#CCC6C6" d="M276.173,354.908c0,0,1.553-11.452-0.395-13.756c-1.948-2.305-4.752-3.943-6.01-6.611
			c-1.258-2.668-4.972-7.485-10.044-10.733c-5.071-3.248-18.14-7.989-25.457-7.12c-7.318,0.868-18.667,10.196-22.964,13.43
			c-4.296,3.232-6.844,6.07-9.045,6.988c-2.202,0.919-0.723,2.245,5.106,9.066c5.829,6.819,11.981,20.644,31.266,19.389
			c19.285-1.256,22.002-7.869,27.822-8.091C272.273,357.249,275.149,355.875,276.173,354.908z"/>
		<path fill="#201E1F" d="M215.53,344.092c1.864,12.226,14.607,20.803,28.464,19.158s23.578-12.887,21.715-25.112
			c-1.864-12.225-14.607-20.802-28.464-19.158C223.389,320.624,213.667,331.867,215.53,344.092z"/>
		<path d="M224.673,341.928c1.11,7.283,8.703,12.395,16.959,11.415s14.048-7.679,12.938-14.963s-8.703-12.396-16.959-11.415
			C229.355,327.944,223.562,334.644,224.673,341.928z"/>
		<path fill="#FFFFFF" d="M222.689,332c0.564,3.699,4.419,6.294,8.612,5.797c4.193-0.498,7.135-3.899,6.571-7.599
			c-0.563-3.699-4.42-6.295-8.613-5.798C225.066,324.898,222.125,328.301,222.689,332z"/>
		<path fill="#FFFFFF" d="M240.654,352.517c0.284,1.862,2.226,3.169,4.336,2.918c2.111-0.25,3.592-1.963,3.309-3.825
			c-0.284-1.862-2.226-3.169-4.336-2.919C241.852,348.941,240.371,350.654,240.654,352.517z"/>
	</g>
	<g>
		<path fill="#141211" d="M298.879,393.226c-15.516,0-28.094-8.388-28.094,4.271c0,12.66,15.607,11.178,20.637,20.375
			c1.467,2.683,4.175,3.689,7.458,3.52c3.283,0.17,5.99-0.837,7.457-3.52c5.029-9.197,20.638-7.715,20.638-20.375
			C326.974,384.838,314.396,393.226,298.879,393.226z"/>
		<path fill="#FFFFFF" d="M298.879,394.012c-8.404,0-15.216-3.247-15.216-0.405c0,2.843,8.453,2.51,11.178,4.574
			c0.794,0.603,2.261,0.828,4.039,0.79c1.778,0.038,3.245-0.188,4.039-0.79c2.724-2.064,11.178-1.731,11.178-4.574
			C314.096,390.765,307.283,394.012,298.879,394.012z"/>
		<path d="M291.422,417.871c1.467,2.683,4.175,3.689,7.458,3.52c3.283,0.17,5.99-0.837,7.457-3.52
			c5.029-9.197,20.638-7.715,20.638-20.375c0-5.583-2.449-7.07-6.516-6.99c5.313,0.344,4.444,4.413,3.065,10.5
			c-1.385,6.11-7.799,7.197-14.366,9.608s-4.054,8.271-10.005,8.271c-5.952,0-7.286-3.983-8.568-6.111
			c-1.283-2.127-4.669-4.3-10.569-5.069c-5.576-0.728-7.981-4.863-8.229-5.317C275.305,409.949,287.16,410.077,291.422,417.871z"/>
		<path d="M279.143,391.272c5.438,0.77,6.432,1.953,19.737,1.953c-12.262,0-22.682-5.229-26.517-1.18
			C272.742,391.728,274.447,390.608,279.143,391.272z"/>
	</g>
	<path fill="#E9E1E1" d="M217.395,437.226c-0.293,0.067-0.456,0.21-0.456,0.21C217.113,437.386,217.261,437.312,217.395,437.226z"/>
	<path fill="#E9E1E1" d="M377.886,437.226c0.134,0.086,0.282,0.16,0.456,0.21C378.342,437.436,378.18,437.293,377.886,437.226z"/>
	<path fill="#F0EAE9" d="M217.395,437.226c-0.293,0.067-0.456,0.21-0.456,0.21C217.113,437.386,217.261,437.312,217.395,437.226z"/>
	<path fill="#CCC6C6" d="M377.886,437.226c0.134,0.086,0.282,0.16,0.456,0.21C378.342,437.436,378.18,437.293,377.886,437.226z"/>
	<path fill="#F0EAE9" d="M217.395,437.226c-0.293,0.067-0.456,0.21-0.456,0.21C217.113,437.386,217.261,437.312,217.395,437.226z"/>
	<path fill="#F0EAE9" d="M377.886,437.226c0.134,0.086,0.282,0.16,0.456,0.21C378.342,437.436,378.18,437.293,377.886,437.226z"/>
	<path fill="#E7E1E0" d="M169.894,328.275l-0.004,0.005C170.288,328.349,169.894,328.275,169.894,328.275z"/>
	<path fill="#BC8754" d="M169.052,325.951c-0.366-0.063-2.6,2.324-7.435-0.418c-4.901-2.779-11.273-10.547-12.317-13.678
		c-1.043-3.13-2.471-3.185-6.096-5.271s-3.789-9.116-4.777-13.234c-0.989-4.119-4.888-3.46-8.402-6.261
		c-3.514-2.801-3.185-9.061-3.844-10.324c-0.65-1.246-5.177-4-5.298-4.074c1.458,1.524,2.957,2.988,4.505,4.38
		c0,0,1.58,7.591,2.951,10.278c1.371,2.687,6.643,3.627,8.743,11.074c2.099,7.447,3.309,10.727,8.243,14.338
		c0,0-0.394,8.167,12.608,12.893c4.757,1.729,6.382,2.374,8.654,3.521C167.848,328.413,169.03,325.979,169.052,325.951z"/>
	<path fill="none" d="M172.876,357.971c-0.006-0.004-0.013-0.006-0.02-0.01l0.012,0.007L172.876,357.971z"/>
	<path fill="none" d="M177.221,361.884c-0.055,0.005-0.109,0.011-0.164,0.016C177.111,361.895,177.166,361.889,177.221,361.884z"/>
	<path fill="none" d="M171.242,354.057c-0.068,0.096-0.132,0.191-0.216,0.282C171.105,354.253,171.178,354.16,171.242,354.057z"/>
	<path fill="none" d="M159.965,339.916c-0.005-0.006-0.01-0.01-0.016-0.015l0.001,0.002
		C159.95,339.903,159.96,339.912,159.965,339.916z"/>
	<path fill="#F0EAE9" d="M217.395,437.226c-0.293,0.067-0.456,0.21-0.456,0.21C217.113,437.386,217.261,437.312,217.395,437.226z"/>
	<path fill="#F0EAE9" d="M377.886,437.226c0.134,0.086,0.282,0.16,0.456,0.21C378.342,437.436,378.18,437.293,377.886,437.226z"/>
	<path fill="#E7E1E0" d="M177.058,361.899c-0.061,0.007-0.123,0.013-0.182,0.019C176.936,361.911,176.997,361.906,177.058,361.899z"
		/>
	<path fill="#E7E1E0" d="M210.534,410.835c0.188-0.485,0.331-1.021,0.393-1.61L210.534,410.835z"/>
	<g>
		<path fill="#BC8754" d="M207.654,405.117c0,0,1.33,2.977,1.236,5.779h0.001c0.393-3.021-1.079-6.508-1.079-6.508
			c-1.569,2.101-5.64,0.99-5.894,0.918C203.441,406.004,205.537,406.426,207.654,405.117z"/>
		<path fill="#BC8754" d="M210.927,409.225c0,0,2.299,5.063,2.603,11.133l1.038-0.319
			C213.002,413.172,210.927,409.225,210.927,409.225z"/>
		<path fill="#BC8754" d="M170.155,348.736c0.005,0.008,0.011,0.016,0.017,0.023c1.594,2.787,1.641,4.387,1.071,5.297
			c1.693-2.352-1.074-5.908-1.074-5.908c-3.093,2.741-9.132,0.033-9.205,0C165.301,351.545,170.093,348.773,170.155,348.736z"/>
		<path fill="#BC8754" d="M205.511,399.047c1.11,4.764-1.909,6.14-4.205,5.628l0.006,0.01c1.875,0.652,3.013-0.104,3.013-0.104
			c3.075-1.263,2.333-8.072-0.604-9.391c-2.938-1.317-5.947,0.763-5.947,0.763S204.083,392.917,205.511,399.047z"/>
		<path fill="#BC8754" d="M164.415,344.181L164.415,344.181c1.864-0.807,2.531-2.158,2.531-2.158s1.483-0.019-1.519,0
			c-2.906,0.018-5.31-1.978-5.462-2.106c2.349,2.455,5.962,2.629,5.962,2.629C165.505,343.234,164.984,343.768,164.415,344.181z"/>
		<path fill="#BC8754" d="M163.251,336.594c-0.347,0.787-1.062,1.152-1.831,1.303l0.002,0.002c1.723-0.053,2.76-1.688,2.76-1.688
			c-3.322-0.412-4.5-5.49-4.5-5.49C160.04,335.482,163.251,336.594,163.251,336.594z"/>
		<path fill="#BC8754" d="M180.562,361.963c-1.319-0.173-2.45-0.158-3.341-0.079c1.756-0.131,3.875,0.329,3.875,0.329l-0.751-1.373
			l-7.47-2.869c2.503,1.205,5.232,2.441,7.115,3.281C180.181,361.487,180.372,361.725,180.562,361.963z"/>
		<path fill="#BC8754" d="M172.856,357.961l-5.038-2.766c-0.174-0.016-0.279-0.032-0.279-0.032
			C168.649,355.877,170.665,356.906,172.856,357.961z"/>
		<path fill="#BC8754" d="M193.806,382.779c0.021,0.752,0.047,1.421,0.07,2.03l0,0c0,0,0.839-2.333-0.369-4.2
			s-3.348-2.529-3.348-2.529h-0.001C192.182,379.25,193.751,380.794,193.806,382.779z"/>
		<path fill="#BC8754" d="M187.177,370.252c-0.187,0.958-0.612,2.154-1.567,3.106l0.001,0.001c1.495-1.156,2.062-3.238,2.062-3.238
			s-0.783-1.016-1.332-1.538c-0.549-0.521-3.067-1.784-3.067-1.784l-0.012-0.002c1.054,0.735,2.029,1.467,2.885,2.153
			C186.49,369.382,186.833,369.814,187.177,370.252z"/>
		<path fill="#BC8754" d="M199.381,387.977c0,0,0.949,2.256,0.507,4.593l0.009-0.007c0.707-3.725-0.24-5.308-0.24-5.308
			c-3.24-0.55-5.078,2.718-5.078,2.718l-0.001,0.002C196.246,388.43,198.185,387.131,199.381,387.977z"/>
		<path fill="#BC8754" d="M159.949,339.901l-0.639-1.999c-0.441-0.064-0.738-0.143-0.738-0.143
			C158.918,338.619,159.399,339.322,159.949,339.901z"/>
	</g>
	<path fill="#E4E2DC" d="M297.64,433.744c33.811,0.113,61.87,35.789,61.87,1.949c0-28.914-19.907-67.318-46.785-78.346
		c0.294,0.24,44.822,36.811,41.611,76.219c0,0,0.842,18.708-28.043,4.979c0,0-21.197-11.532-38.002-6.59
		c-16.801,4.941-56.168,29.142-51.523-8.032c-0.654,4.031-0.997,7.982-0.997,11.77C235.771,469.533,263.829,433.857,297.64,433.744z
		"/>
	<path fill="#E4E2DC" d="M324.943,391.635c1.305,1.023,2.03,2.837,2.03,5.861c0,12.66-15.608,11.178-20.638,20.375
		c-1.083,1.982-2.847,3.044-5.017,3.397c5.057-0.541,7.044-2.882,9.597-6.52c2.93-4.174,11.35-4.613,16.058-12.009
		C330.799,396.731,326.639,392.871,324.943,391.635z"/>
	<path fill="#141211" d="M324.504,391.333c0.111,0.071,0.261,0.171,0.439,0.302C324.804,391.525,324.657,391.425,324.504,391.333z"
		/>
	<path fill="#C3BDBD" d="M264.1,442.928c31.72-14.342,66.918-0.065,67.095,0.006c-9.707-4.396-21.249-9.148-33.554-9.189
		C285.34,433.785,273.803,438.533,264.1,442.928z"/>
	<path fill="#E7E1E0" d="M359.484,308.945c0,0-0.004,0.005-0.004,0.006c0.019-0.004,0.028-0.006,0.029-0.006
		C359.535,308.945,359.484,308.945,359.484,308.945z"/>
	<path fill="#BC8754" d="M388.158,372.804c0,0,15.047,11.486,13.18,31.004s0.33,18.859,3.405,23.802c0,0-18.122-5.876-18.013-25.344
		c0.11-19.468-6.37-17.051-6.37-17.051L388.158,372.804z"/>
	<path fill="#C58D58" d="M279.686,338.714c0,0-3.515,6.609-8.457,4.303c0,0,1.006,0.574,0.777-3.173
		c-0.229-3.746-1.144,2.002-2.022,0.281c0,0,0.257-1.318-0.695-2.563c-0.952-1.244-1.83-1.391-3.771-2.636
		c0,0,0.512-0.549,0.512-1.208s-3.992-3.624-6.92-3.771c-2.928-0.146-0.182,0-0.182,0s1.135-2.307-0.439-3.845
		c-1.574-1.537-1.062-1.83-6.59-1.062c0,0,1.354-1.721,0-2.672c0,0-5.639,0.256-8.018,1.171c0,0,2.846-0.383,2.306-2.27
		s-0.146-0.184-0.146-0.184s-4.686-2.196-6.773-0.438c0,0-0.659-2.234-2.343-2.563c-1.685-0.329-5.711-0.439-6.37,1.978
		c-0.659,2.416-2.526,3.551-3.295,3.881c0,0-0.696-1.941-2.197-1.867c-1.501,0.072-4.77,4.43-4.051,6.333
		c0,0-3.088-0.915-3.967,0.293c-0.879,1.208-1.391,5.895,0,6.847c0,0-3.863,2.965-4.082-2.526c0,0-5.382,0.494-4.942,4.997
		c0.439,4.503-3.625,8.347-5.107,8.566c0,0,3.404-4.009,0.714-6.699c0,0-3.021-1.652-3.68,2.084c0,0-3.405,0.662-2.911-4.391
		l11.148-12.384c0,0,19.66-13.921,19.989-14.25c0.329-0.329,13.069-3.845,13.069-3.845l19.66,3.734c0,0,10.873,5.162,11.203,5.272
		C272.437,316.218,279.686,338.714,279.686,338.714z"/>
	<path fill="#C58D58" d="M314.854,338.714c0,0,3.515,6.609,8.457,4.303c0,0-1.006,0.574-0.777-3.173
		c0.229-3.746,1.144,2.002,2.022,0.281c0,0-0.257-1.318,0.695-2.563c0.951-1.244,1.83-1.391,3.771-2.636
		c0,0-0.512-0.549-0.512-1.208s3.991-3.624,6.92-3.771c2.928-0.146,0.182,0,0.182,0s-1.135-2.307,0.439-3.845
		c1.574-1.537,1.062-1.83,6.59-1.062c0,0-1.354-1.721,0-2.672c0,0,5.638,0.256,8.018,1.171c0,0-2.846-0.383-2.307-2.27
		c0.54-1.887,0.146-0.184,0.146-0.184s4.687-2.196,6.773-0.438c0,0,0.658-2.234,2.343-2.563s5.711-0.439,6.37,1.978
		c0.659,2.416,2.526,3.551,3.295,3.881c0,0,0.695-1.941,2.197-1.867c1.5,0.072,4.77,4.43,4.051,6.333c0,0,3.088-0.915,3.967,0.293
		c0.878,1.208,1.391,5.895,0,6.847c0,0,3.862,2.965,4.082-2.526c0,0,5.381,0.494,4.942,4.997c-0.439,4.503,3.624,8.347,5.106,8.566
		c0,0-3.404-4.009-0.714-6.699c0,0,3.021-1.652,3.68,2.084c0,0,3.404,0.662,2.91-4.391l-11.147-12.384
		c0,0-19.66-13.921-19.989-14.25c-0.33-0.329-13.07-3.845-13.07-3.845l-19.659,3.734c0,0-10.873,5.162-11.203,5.272
		C322.103,316.218,314.854,338.714,314.854,338.714z"/>
</g>
</svg>
